<svg xmlns="http://www.w3.org/2000/svg" aria-hidden="true" style="position:absolute;width:0;height:0;overflow:hidden">
    <defs>
        <symbol id="icon-logo" viewBox="0 0 101 16">
            <path d="M101.071 7.64528C100.388 7.64528 99.7639 7.68469 99.1991 7.76351C98.6342 7.84232 98.0234 7.99996 97.3666 8.23641V15.7635H93.938V4.57138H96.4799L96.9922 5.89158C97.6753 5.33986 98.3452 4.94577 99.002 4.70931C99.6589 4.47286 100.349 4.35463 101.071 4.35463V7.64528Z"
                  fill="#3470FF"/>
            <path d="M92.2985 15.6453C91.8781 15.7373 91.5037 15.803 91.1753 15.8424C90.8601 15.8818 90.4857 15.9015 90.0522 15.9015C88.7911 15.9015 87.9635 15.4943 87.5694 14.6798C87.0177 15.087 86.466 15.3957 85.9142 15.6059C85.3625 15.8161 84.7582 15.9212 84.1014 15.9212C83.5103 15.9212 82.9783 15.7964 82.5054 15.5468C82.0324 15.2972 81.6646 14.9622 81.4019 14.5419C81.1392 14.1215 81.0078 13.6617 81.0078 13.1626C81.0078 12.3218 81.218 11.6585 81.6384 11.1724C82.0719 10.6732 82.6499 10.2791 83.3723 9.99014C84.0948 9.68801 85.1917 9.32676 86.663 8.9064L87.2541 8.72906V8.65024C87.2541 7.4417 86.7024 6.83743 85.599 6.83743C85.0604 6.83743 84.4824 6.95566 83.865 7.19211C83.2476 7.42856 82.5382 7.80952 81.7369 8.33497L81.0866 5.97043C81.9799 5.45812 82.8863 5.05746 83.8058 4.76846C84.7385 4.47946 85.7238 4.33496 86.7615 4.33496C88.0226 4.33496 88.9881 4.67651 89.6581 5.35959C90.3412 6.04268 90.6827 7.21181 90.6827 8.86699V12.6108C90.6827 12.8998 90.7418 13.11 90.86 13.2414C90.9783 13.3596 91.1688 13.4187 91.4315 13.4187C91.6811 13.4187 91.9307 13.3859 92.1803 13.3202L92.2985 15.6453ZM84.4364 12.7094C84.4364 12.9721 84.5021 13.1626 84.6334 13.2808C84.7779 13.399 85.0013 13.4581 85.3034 13.4581C85.8551 13.4581 86.5054 13.2217 87.2541 12.7488V10.6601L86.9586 10.7586C85.9733 11.1133 85.3034 11.4286 84.9487 11.7044C84.6072 11.9672 84.4364 12.3021 84.4364 12.7094Z"
                  fill="#3470FF"/>
            <path d="M75.1822 16C73.5533 16 72.174 15.6847 71.0443 15.0542C69.9145 14.4105 69.0673 13.5632 68.5024 12.5123C67.9507 11.4482 67.6748 10.2923 67.6748 9.0443C67.6748 7.80949 67.9638 6.66663 68.5418 5.61573C69.1329 4.56482 70.0065 3.7241 71.1625 3.09355C72.3185 2.46301 73.7109 2.14774 75.3398 2.14774C76.8637 2.14774 78.2036 2.44331 79.3596 3.03444L78.6502 5.5172C78.1642 5.26761 77.6584 5.07057 77.133 4.92607C76.6075 4.76843 76.0098 4.68962 75.3398 4.68962C74.486 4.68962 73.7438 4.88666 73.1132 5.28075C72.4958 5.6617 72.0229 6.18716 71.6945 6.85711C71.3792 7.51392 71.2216 8.24956 71.2216 9.06401C71.2216 10.3514 71.5632 11.4088 72.2462 12.2364C72.9293 13.0509 73.908 13.4581 75.1822 13.4581C76.2725 13.4581 77.4482 13.1888 78.7093 12.6502L79.3793 15.0739C78.8407 15.3497 78.197 15.5731 77.4482 15.7438C76.6995 15.9146 75.9441 16 75.1822 16Z"
                  fill="#3470FF"/>
            <path d="M61.7836 0H65.2121V15.7636H61.7836V0Z" fill="#101828"/>
            <path d="M60.1439 15.6453C59.7236 15.7373 59.3492 15.803 59.0208 15.8424C58.7055 15.8818 58.3311 15.9015 57.8976 15.9015C56.6365 15.9015 55.8089 15.4943 55.4149 14.6798C54.8631 15.087 54.3114 15.3957 53.7597 15.6059C53.208 15.8161 52.6037 15.9212 51.9469 15.9212C51.3557 15.9212 50.8237 15.7964 50.3508 15.5468C49.8779 15.2972 49.5101 14.9622 49.2474 14.5419C48.9846 14.1215 48.8533 13.6617 48.8533 13.1626C48.8533 12.3218 49.0635 11.6585 49.4838 11.1724C49.9173 10.6732 50.4953 10.2791 51.2178 9.99014C51.9403 9.68801 53.0372 9.32676 54.5085 8.9064L55.0996 8.72906V8.65024C55.0996 7.4417 54.5479 6.83743 53.4444 6.83743C52.9058 6.83743 52.3278 6.95566 51.7104 7.19211C51.093 7.42856 50.3837 7.80952 49.5823 8.33497L48.9321 5.97043C49.8254 5.45812 50.7318 5.05746 51.6513 4.76846C52.584 4.47946 53.5692 4.33496 54.607 4.33496C55.8681 4.33496 56.8336 4.67651 57.5035 5.35959C58.1866 6.04268 58.5282 7.21181 58.5282 8.86699V12.6108C58.5282 12.8998 58.5873 13.11 58.7055 13.2414C58.8237 13.3596 59.0142 13.4187 59.2769 13.4187C59.5265 13.4187 59.7761 13.3859 60.0257 13.3202L60.1439 15.6453ZM52.2818 12.7094C52.2818 12.9721 52.3475 13.1626 52.4789 13.2808C52.6234 13.399 52.8467 13.4581 53.1488 13.4581C53.7006 13.4581 54.3508 13.2217 55.0996 12.7488V10.6601L54.804 10.7586C53.8188 11.1133 53.1488 11.4286 52.7942 11.7044C52.4526 11.9672 52.2818 12.3021 52.2818 12.7094Z"
                  fill="#101828"/>
            <path d="M47.6242 15.0345C47.2301 15.3104 46.7572 15.5272 46.2055 15.6848C45.6669 15.8293 45.1414 15.9015 44.6291 15.9015C43.2367 15.9015 42.1989 15.5994 41.5158 14.9951C40.8327 14.3777 40.4912 13.4976 40.4912 12.3547V6.99512H38.8163V5.55669L40.9247 4.7094L41.8705 1.69461H43.9197V4.57147H47.0725V6.99512H43.9197V11.5271C43.9197 12.2234 44.0314 12.716 44.2547 13.005C44.478 13.294 44.813 13.4385 45.2596 13.4385C45.8376 13.4385 46.4485 13.2677 47.0922 12.9262L47.6242 15.0345Z"
                  fill="#101828"/>
            <path d="M33.1902 4.33496C34.6483 4.33496 35.6532 4.72248 36.2049 5.49752C36.7698 6.27257 37.0522 7.38915 37.0522 8.84728V15.7636H33.6237V9.28078C33.6237 8.36124 33.512 7.72413 33.2887 7.36945C33.0785 7.01477 32.6647 6.83743 32.0473 6.83743C31.3773 6.83743 30.6943 7.06075 29.998 7.50738V15.7636H26.5695V4.57142H29.1113L29.466 5.49752C30.7534 4.72248 31.9948 4.33496 33.1902 4.33496Z"
                  fill="#101828"/>
            <path d="M17.0283 10.798C17.094 11.7307 17.3239 12.4204 17.718 12.867C18.1121 13.3136 18.7163 13.5369 19.5308 13.5369C20.1351 13.5369 20.6934 13.4319 21.2057 13.2217C21.7311 12.9984 22.3288 12.67 22.9988 12.2365L23.9249 14.4039C23.2287 14.9688 22.539 15.376 21.8559 15.6256C21.1728 15.8752 20.3912 16 19.5111 16C18.2106 16 17.1203 15.7504 16.2402 15.2512C15.36 14.7389 14.7032 14.0493 14.2697 13.1823C13.8493 12.3021 13.6392 11.3038 13.6392 10.1872C13.6392 8.41379 14.1383 6.99506 15.1367 5.93102C16.1351 4.86698 17.5932 4.33496 19.5111 4.33496C21.0349 4.33496 22.1909 4.74875 22.9791 5.57634C23.7804 6.39079 24.1876 7.55336 24.2008 9.06403C24.2008 9.65517 24.1154 10.2332 23.9446 10.798H17.0283ZM20.8707 8.57142C20.8838 8.4926 20.8904 8.38751 20.8904 8.25615C20.8773 7.71756 20.7328 7.31034 20.4569 7.03447C20.181 6.74547 19.8001 6.60098 19.314 6.60098C18.1581 6.60098 17.4356 7.25779 17.1466 8.57142H20.8707Z"
                  fill="#101828"/>
            <path d="M5.43843 10.8375H3.5468V15.7636H0V2.36454H5.35962C7.27752 2.36454 8.67654 2.69294 9.55667 3.34976C10.4368 3.99344 10.8769 5.0115 10.8769 6.40395C10.8769 8.21676 10.2135 9.43187 8.88672 10.0493L12.6503 15.7636H8.55174L5.43843 10.8375ZM3.5468 8.3744H5.35962C6.05584 8.3744 6.55502 8.2299 6.85716 7.9409C7.17243 7.6519 7.33006 7.20527 7.33006 6.601C7.33006 5.97045 7.179 5.51725 6.87686 5.24139C6.57472 4.96553 6.06898 4.82759 5.35962 4.82759H3.5468V8.3744Z"
                  fill="#101828"/>

        </symbol>

        <symbol id="icon-heart-default" viewBox="0 0 32 32">
            <path d="M7.9999 2.74805L7.2829 2.01105C5.5999 0.281049 2.5139 0.878049 1.39989 3.05305C0.876895 4.07605 0.758895 5.55305 1.71389 7.43805C2.63389 9.25305 4.5479 11.427 7.9999 13.795C11.4519 11.427 13.3649 9.25305 14.2859 7.43805C15.2409 5.55205 15.1239 4.07605 14.5999 3.05305C13.4859 0.878049 10.3999 0.280049 8.7169 2.01005L7.9999 2.74805ZM7.9999 15C-7.33311 4.86805 3.27889 -3.03995 7.82389 1.14305C7.88389 1.19838 7.94256 1.25538 7.9999 1.31405C8.05623 1.25501 8.11494 1.1983 8.17589 1.14405C12.7199 -3.04195 23.3329 4.86705 7.9999 15Z"
                  fill="#F2F4F7"/>
        </symbol>

        <symbol id="icon-heart-active" viewBox="0 0 32 32">
            <path fill-rule="evenodd" clip-rule="evenodd"
                  d="M7.99978 1.31405C12.4378 -3.24795 23.5338 4.73505 7.99978 15.0001C-7.53422 4.73605 3.56178 -3.24795 7.99978 1.31405Z"
                  fill="#3470FF"/>
        </symbol>

        <symbol id="icon-chevron-default" viewBox="0 0 32 32">
            <path fill-rule="evenodd" clip-rule="evenodd"
                  d="M1.14689 4.14689C1.19334 4.10033 1.24852 4.06339 1.30926 4.03818C1.37001 4.01297 1.43513 4 1.50089 4C1.56666 4 1.63178 4.01297 1.69253 4.03818C1.75327 4.06339 1.80845 4.10033 1.85489 4.14689L7.50089 9.79389L13.1469 4.14689C13.1934 4.10041 13.2486 4.06353 13.3093 4.03837C13.37 4.01321 13.4352 4.00026 13.5009 4.00026C13.5666 4.00026 13.6317 4.01321 13.6925 4.03837C13.7532 4.06353 13.8084 4.10041 13.8549 4.14689C13.9014 4.19338 13.9383 4.24857 13.9634 4.30931C13.9886 4.37005 14.0015 4.43515 14.0015 4.50089C14.0015 4.56664 13.9886 4.63174 13.9634 4.69248C13.9383 4.75322 13.9014 4.80841 13.8549 4.85489L7.85489 10.8549C7.80845 10.9015 7.75327 10.9384 7.69253 10.9636C7.63178 10.9888 7.56666 11.0018 7.50089 11.0018C7.43513 11.0018 7.37001 10.9888 7.30926 10.9636C7.24852 10.9384 7.19334 10.9015 7.14689 10.8549L1.14689 4.85489C1.10033 4.80845 1.06339 4.75327 1.03818 4.69253C1.01297 4.63178 1 4.56666 1 4.50089C1 4.43513 1.01297 4.37001 1.03818 4.30926C1.06339 4.24851 1.10033 4.19334 1.14689 4.14689Z"
                  fill="#101828"/>
        </symbol>


        <symbol id="icon-chevron-active" viewBox="0 0 32 32">
            <path fill-rule="evenodd" clip-rule="evenodd"
                  d="M7.14663 4.14689C7.19308 4.10033 7.24825 4.06339 7.309 4.03818C7.36974 4.01297 7.43486 4 7.50063 4C7.5664 4 7.63152 4.01297 7.69226 4.03818C7.75301 4.06339 7.80819 4.10033 7.85463 4.14689L13.8546 10.1469C13.9485 10.2408 14.0013 10.3681 14.0013 10.5009C14.0013 10.6337 13.9485 10.761 13.8546 10.8549C13.7607 10.9488 13.6334 11.0015 13.5006 11.0015C13.3679 11.0015 13.2405 10.9488 13.1466 10.8549L7.50063 5.20789L1.85463 10.8549C1.76075 10.9488 1.63341 11.0015 1.50063 11.0015C1.36786 11.0015 1.24052 10.9488 1.14663 10.8549C1.05274 10.761 1 10.6337 1 10.5009C1 10.3681 1.05274 10.2408 1.14663 10.1469L7.14663 4.14689Z"
                  fill="#101828"/>
        </symbol>

        <symbol id="icon-location" viewBox="0 0 32 32">
            <path d="M11.5306 8.38125C11.0394 9.37687 10.3738 10.3688 9.69313 11.2594C9.04677 12.0984 8.35642 12.9027 7.625 13.6687C6.89358 12.9027 6.20324 12.0984 5.55688 11.2594C4.87625 10.3688 4.21063 9.37687 3.71938 8.38125C3.2225 7.37531 2.9375 6.43313 2.9375 5.625C2.9375 4.3818 3.43136 3.18951 4.31044 2.31044C5.18951 1.43136 6.3818 0.9375 7.625 0.9375C8.8682 0.9375 10.0605 1.43136 10.9396 2.31044C11.8186 3.18951 12.3125 4.3818 12.3125 5.625C12.3125 6.43313 12.0266 7.37531 11.5306 8.38125ZM7.625 15C7.625 15 13.25 9.66938 13.25 5.625C13.25 4.13316 12.6574 2.70242 11.6025 1.64752C10.5476 0.592632 9.11684 0 7.625 0C6.13316 0 4.70242 0.592632 3.64752 1.64752C2.59263 2.70242 2 4.13316 2 5.625C2 9.66938 7.625 15 7.625 15Z"
                  fill="#101828"/>
            <path d="M7.625 7.5C7.12772 7.5 6.65081 7.30246 6.29917 6.95083C5.94754 6.59919 5.75 6.12228 5.75 5.625C5.75 5.12772 5.94754 4.65081 6.29917 4.29917C6.65081 3.94754 7.12772 3.75 7.625 3.75C8.12228 3.75 8.59919 3.94754 8.95082 4.29917C9.30246 4.65081 9.5 5.12772 9.5 5.625C9.5 6.12228 9.30246 6.59919 8.95082 6.95083C8.59919 7.30246 8.12228 7.5 7.625 7.5ZM7.625 8.4375C8.37092 8.4375 9.08629 8.14118 9.61374 7.61374C10.1412 7.08629 10.4375 6.37092 10.4375 5.625C10.4375 4.87908 10.1412 4.16371 9.61374 3.63626C9.08629 3.10882 8.37092 2.8125 7.625 2.8125C6.87908 2.8125 6.16371 3.10882 5.63626 3.63626C5.10882 4.16371 4.8125 4.87908 4.8125 5.625C4.8125 6.37092 5.10882 7.08629 5.63626 7.61374C6.16371 8.14118 6.87908 8.4375 7.625 8.4375Z"
                  fill="#101828"/>
        </symbol>

        <symbol id="icon-calendar" viewBox="0 0 32 32">
            <path d="M3.5 0C3.63261 0 3.75979 0.0526784 3.85355 0.146447C3.94732 0.240215 4 0.367392 4 0.5V1H12V0.5C12 0.367392 12.0527 0.240215 12.1464 0.146447C12.2402 0.0526784 12.3674 0 12.5 0C12.6326 0 12.7598 0.0526784 12.8536 0.146447C12.9473 0.240215 13 0.367392 13 0.5V1H14C14.5304 1 15.0391 1.21071 15.4142 1.58579C15.7893 1.96086 16 2.46957 16 3V14C16 14.5304 15.7893 15.0391 15.4142 15.4142C15.0391 15.7893 14.5304 16 14 16H2C1.46957 16 0.960859 15.7893 0.585786 15.4142C0.210714 15.0391 0 14.5304 0 14V3C0 2.46957 0.210714 1.96086 0.585786 1.58579C0.960859 1.21071 1.46957 1 2 1H3V0.5C3 0.367392 3.05268 0.240215 3.14645 0.146447C3.24021 0.0526784 3.36739 0 3.5 0ZM2 2C1.73478 2 1.48043 2.10536 1.29289 2.29289C1.10536 2.48043 1 2.73478 1 3V14C1 14.2652 1.10536 14.5196 1.29289 14.7071C1.48043 14.8946 1.73478 15 2 15H14C14.2652 15 14.5196 14.8946 14.7071 14.7071C14.8946 14.5196 15 14.2652 15 14V3C15 2.73478 14.8946 2.48043 14.7071 2.29289C14.5196 2.10536 14.2652 2 14 2H2Z"
                  fill="#101828"/>
            <path d="M2.5 4C2.5 3.86739 2.55268 3.74021 2.64645 3.64645C2.74021 3.55268 2.86739 3.5 3 3.5H13C13.1326 3.5 13.2598 3.55268 13.3536 3.64645C13.4473 3.74021 13.5 3.86739 13.5 4V5C13.5 5.13261 13.4473 5.25979 13.3536 5.35355C13.2598 5.44732 13.1326 5.5 13 5.5H3C2.86739 5.5 2.74021 5.44732 2.64645 5.35355C2.55268 5.25979 2.5 5.13261 2.5 5V4ZM11 7.5C11 7.36739 11.0527 7.24021 11.1464 7.14645C11.2402 7.05268 11.3674 7 11.5 7H12.5C12.6326 7 12.7598 7.05268 12.8536 7.14645C12.9473 7.24021 13 7.36739 13 7.5V8.5C13 8.63261 12.9473 8.75979 12.8536 8.85355C12.7598 8.94732 12.6326 9 12.5 9H11.5C11.3674 9 11.2402 8.94732 11.1464 8.85355C11.0527 8.75979 11 8.63261 11 8.5V7.5ZM8 7.5C8 7.36739 8.05268 7.24021 8.14645 7.14645C8.24021 7.05268 8.36739 7 8.5 7H9.5C9.63261 7 9.75979 7.05268 9.85355 7.14645C9.94732 7.24021 10 7.36739 10 7.5V8.5C10 8.63261 9.94732 8.75979 9.85355 8.85355C9.75979 8.94732 9.63261 9 9.5 9H8.5C8.36739 9 8.24021 8.94732 8.14645 8.85355C8.05268 8.75979 8 8.63261 8 8.5V7.5ZM3 10.5C3 10.3674 3.05268 10.2402 3.14645 10.1464C3.24021 10.0527 3.36739 10 3.5 10H4.5C4.63261 10 4.75979 10.0527 4.85355 10.1464C4.94732 10.2402 5 10.3674 5 10.5V11.5C5 11.6326 4.94732 11.7598 4.85355 11.8536C4.75979 11.9473 4.63261 12 4.5 12H3.5C3.36739 12 3.24021 11.9473 3.14645 11.8536C3.05268 11.7598 3 11.6326 3 11.5V10.5ZM6 10.5C6 10.3674 6.05268 10.2402 6.14645 10.1464C6.24021 10.0527 6.36739 10 6.5 10H7.5C7.63261 10 7.75979 10.0527 7.85355 10.1464C7.94732 10.2402 8 10.3674 8 10.5V11.5C8 11.6326 7.94732 11.7598 7.85355 11.8536C7.75979 11.9473 7.63261 12 7.5 12H6.5C6.36739 12 6.24021 11.9473 6.14645 11.8536C6.05268 11.7598 6 11.6326 6 11.5V10.5Z"
                  fill="#101828"/>
        </symbol>


        <symbol id="icon-car" viewBox="0 0 32 32">
            <path d="M4 9C4 9.26522 3.89464 9.51957 3.70711 9.70711C3.51957 9.89464 3.26522 10 3 10C2.73478 10 2.48043 9.89464 2.29289 9.70711C2.10536 9.51957 2 9.26522 2 9C2 8.73478 2.10536 8.48043 2.29289 8.29289C2.48043 8.10536 2.73478 8 3 8C3.26522 8 3.51957 8.10536 3.70711 8.29289C3.89464 8.48043 4 8.73478 4 9ZM14 9C14 9.26522 13.8946 9.51957 13.7071 9.70711C13.5196 9.89464 13.2652 10 13 10C12.7348 10 12.4804 9.89464 12.2929 9.70711C12.1054 9.51957 12 9.26522 12 9C12 8.73478 12.1054 8.48043 12.2929 8.29289C12.4804 8.10536 12.7348 8 13 8C13.2652 8 13.5196 8.10536 13.7071 8.29289C13.8946 8.48043 14 8.73478 14 9ZM6 8C5.73478 8 5.48043 8.10536 5.29289 8.29289C5.10536 8.48043 5 8.73478 5 9C5 9.26522 5.10536 9.51957 5.29289 9.70711C5.48043 9.89464 5.73478 10 6 10H10C10.2652 10 10.5196 9.89464 10.7071 9.70711C10.8946 9.51957 11 9.26522 11 9C11 8.73478 10.8946 8.48043 10.7071 8.29289C10.5196 8.10536 10.2652 8 10 8H6ZM4.862 4.276L3.906 6.19C3.86691 6.27065 3.84977 6.36018 3.8563 6.44957C3.86283 6.53896 3.8928 6.62505 3.94319 6.69917C3.99358 6.77329 4.06262 6.83282 4.14334 6.87176C4.22406 6.9107 4.31362 6.92769 4.403 6.921C5.313 6.848 6.753 6.751 8 6.751C9.247 6.751 10.688 6.848 11.597 6.921C11.6864 6.92769 11.7759 6.9107 11.8567 6.87176C11.9374 6.83282 12.0064 6.77329 12.0568 6.69917C12.1072 6.62505 12.1372 6.53896 12.1437 6.44957C12.1502 6.36018 12.1331 6.27065 12.094 6.19L11.138 4.277C11.0966 4.19387 11.0328 4.12391 10.9539 4.07499C10.8749 4.02606 10.7839 4.0001 10.691 4H5.309C5.21622 4 5.12527 4.02582 5.04633 4.07456C4.96739 4.12331 4.90356 4.19305 4.862 4.276Z"
                  fill="#101828"/>
            <path d="M2.52 3.515C2.7129 3.065 3.0337 2.68155 3.44257 2.41223C3.85144 2.1429 4.3304 1.99957 4.82 2H11.182C12.182 2 13.086 2.596 13.48 3.515L14.272 5.363C14.347 5.538 14.482 5.682 14.652 5.767C15.152 6.017 15.507 6.482 15.617 7.029L15.952 8.708C15.9853 8.86933 16.0017 9.03267 16.001 9.198V9.611C16.001 10.425 15.611 11.154 15.001 11.608V13.5C15.001 13.6326 14.9483 13.7598 14.8546 13.8536C14.7608 13.9473 14.6336 14 14.501 14H12.501C12.3684 14 12.2412 13.9473 12.1474 13.8536C12.0537 13.7598 12.001 13.6326 12.001 13.5V12.162C10.709 12.21 9.256 12.25 8.001 12.25C6.746 12.25 5.293 12.21 4.001 12.162V13.5C4.001 13.6326 3.94832 13.7598 3.85455 13.8536C3.76078 13.9473 3.63361 14 3.501 14H1.501C1.36839 14 1.24121 13.9473 1.14745 13.8536C1.05368 13.7598 1.001 13.6326 1.001 13.5V11.608C0.390999 11.154 0.000999451 10.425 0.000999451 9.611V9.198C0.00116728 9.03345 0.0175802 8.86932 0.0499995 8.708L0.384999 7.028C0.494999 6.482 0.849999 6.016 1.349 5.767C1.52016 5.68215 1.65531 5.53884 1.73 5.363L2.522 3.515H2.52ZM4.82 3C4.5263 3.00002 4.23906 3.08626 3.99392 3.24803C3.74878 3.4098 3.55652 3.63997 3.441 3.91L2.649 5.757C2.48102 6.15006 2.17865 6.47051 1.796 6.661C1.68579 6.71563 1.58966 6.79493 1.51508 6.89275C1.44051 6.99056 1.38949 7.10426 1.366 7.225L1.03 8.904C1.01035 9.00077 1.0003 9.09925 0.999999 9.198V9.611C0.999999 10.407 1.62 11.059 2.408 11.095C3.963 11.165 6.194 11.25 8 11.25C9.806 11.25 12.037 11.166 13.592 11.095C13.9726 11.0765 14.3314 10.9118 14.5937 10.6354C14.8559 10.359 15.0015 9.99205 15 9.611V9.198C15 9.09933 14.99 9.00133 14.97 8.904L14.635 7.224C14.6114 7.10344 14.5603 6.98994 14.4857 6.89231C14.4111 6.79468 14.3151 6.71553 14.205 6.661C13.8223 6.47051 13.52 6.15006 13.352 5.757L12.56 3.909C12.4443 3.639 12.2518 3.40893 12.0065 3.24734C11.7611 3.08574 11.4738 2.99974 11.18 3H4.82Z"
                  fill="#101828"/>
        </symbol>

    </defs>
</svg>

